<svg width="45" height="13" viewBox="0 0 45 13" fill="none" xmlns="http://www.w3.org/2000/svg">
<path d="M0.0973011 12V0.363636H2.55753V9.97159H7.54617V12H0.0973011ZM19.4155 6.18182C19.4155 7.45076 19.175 8.5303 18.6939 9.42045C18.2166 10.3106 17.5651 10.9905 16.7393 11.4602C15.9174 11.9261 14.9931 12.1591 13.9666 12.1591C12.9325 12.1591 12.0045 11.9242 11.1825 11.4545C10.3606 10.9848 9.71094 10.3049 9.23366 9.41477C8.75639 8.52462 8.51776 7.44697 8.51776 6.18182C8.51776 4.91288 8.75639 3.83333 9.23366 2.94318C9.71094 2.05303 10.3606 1.375 11.1825 0.909091C12.0045 0.439394 12.9325 0.204545 13.9666 0.204545C14.9931 0.204545 15.9174 0.439394 16.7393 0.909091C17.5651 1.375 18.2166 2.05303 18.6939 2.94318C19.175 3.83333 19.4155 4.91288 19.4155 6.18182ZM16.9212 6.18182C16.9212 5.35985 16.7981 4.66667 16.5518 4.10227C16.3094 3.53788 15.9666 3.10985 15.5234 2.81818C15.0803 2.52652 14.5613 2.38068 13.9666 2.38068C13.3719 2.38068 12.853 2.52652 12.4098 2.81818C11.9666 3.10985 11.6219 3.53788 11.3757 4.10227C11.1333 4.66667 11.0121 5.35985 11.0121 6.18182C11.0121 7.00379 11.1333 7.69697 11.3757 8.26136C11.6219 8.82576 11.9666 9.25379 12.4098 9.54545C12.853 9.83712 13.3719 9.98295 13.9666 9.98295C14.5613 9.98295 15.0803 9.83712 15.5234 9.54545C15.9666 9.25379 16.3094 8.82576 16.5518 8.26136C16.7981 7.69697 16.9212 7.00379 16.9212 6.18182ZM28.9538 4.125C28.8743 3.84848 28.7625 3.60417 28.6186 3.39205C28.4747 3.17614 28.2985 2.99432 28.0902 2.84659C27.8857 2.69508 27.6508 2.57955 27.3857 2.5C27.1243 2.42045 26.8345 2.38068 26.5163 2.38068C25.9216 2.38068 25.3989 2.52841 24.9482 2.82386C24.5012 3.11932 24.1527 3.54924 23.9027 4.11364C23.6527 4.67424 23.5277 5.35985 23.5277 6.17045C23.5277 6.98106 23.6508 7.67045 23.897 8.23864C24.1432 8.80682 24.4917 9.24053 24.9425 9.53977C25.3932 9.83523 25.9254 9.98295 26.5391 9.98295C27.0959 9.98295 27.5713 9.88447 27.9652 9.6875C28.3629 9.48674 28.666 9.20455 28.8743 8.84091C29.0864 8.47727 29.1925 8.04735 29.1925 7.55114L29.6925 7.625H26.6925V5.77273H31.5618V7.23864C31.5618 8.26136 31.3459 9.14015 30.9141 9.875C30.4822 10.6061 29.8875 11.1705 29.13 11.5682C28.3724 11.9621 27.505 12.1591 26.5277 12.1591C25.4368 12.1591 24.4785 11.9186 23.6527 11.4375C22.8269 10.9527 22.183 10.2652 21.7209 9.375C21.2625 8.48106 21.0334 7.42045 21.0334 6.19318C21.0334 5.25 21.1697 4.40909 21.4425 3.67045C21.719 2.92803 22.1054 2.29924 22.6016 1.78409C23.0978 1.26894 23.6754 0.876893 24.3345 0.607954C24.9936 0.339015 25.7076 0.204545 26.4766 0.204545C27.1357 0.204545 27.7493 0.301136 28.3175 0.494318C28.8857 0.683712 29.3894 0.952651 29.8288 1.30114C30.272 1.64962 30.6338 2.06439 30.9141 2.54545C31.1944 3.02273 31.3743 3.54924 31.4538 4.125H28.9538ZM44.103 6.18182C44.103 7.45076 43.8625 8.5303 43.3814 9.42045C42.9041 10.3106 42.2526 10.9905 41.4268 11.4602C40.6049 11.9261 39.6806 12.1591 38.6541 12.1591C37.62 12.1591 36.692 11.9242 35.87 11.4545C35.0481 10.9848 34.3984 10.3049 33.9212 9.41477C33.4439 8.52462 33.2053 7.44697 33.2053 6.18182C33.2053 4.91288 33.4439 3.83333 33.9212 2.94318C34.3984 2.05303 35.0481 1.375 35.87 0.909091C36.692 0.439394 37.62 0.204545 38.6541 0.204545C39.6806 0.204545 40.6049 0.439394 41.4268 0.909091C42.2526 1.375 42.9041 2.05303 43.3814 2.94318C43.8625 3.83333 44.103 4.91288 44.103 6.18182ZM41.6087 6.18182C41.6087 5.35985 41.4856 4.66667 41.2393 4.10227C40.9969 3.53788 40.6541 3.10985 40.2109 2.81818C39.7678 2.52652 39.2488 2.38068 38.6541 2.38068C38.0594 2.38068 37.5405 2.52652 37.0973 2.81818C36.6541 3.10985 36.3094 3.53788 36.0632 4.10227C35.8208 4.66667 35.6996 5.35985 35.6996 6.18182C35.6996 7.00379 35.8208 7.69697 36.0632 8.26136C36.3094 8.82576 36.6541 9.25379 37.0973 9.54545C37.5405 9.83712 38.0594 9.98295 38.6541 9.98295C39.2488 9.98295 39.7678 9.83712 40.2109 9.54545C40.6541 9.25379 40.9969 8.82576 41.2393 8.26136C41.4856 7.69697 41.6087 7.00379 41.6087 6.18182Z" fill="white"/>
</svg>
