<svg width="24" height="25" viewBox="0 0 24 25" fill="none" xmlns="http://www.w3.org/2000/svg">
<path d="M9 5L7 5" stroke="#6EB8B8" stroke-miterlimit="10" stroke-linecap="round" stroke-linejoin="round"/>
<path d="M9 3H7" stroke="#6EB8B8" stroke-miterlimit="10" stroke-linecap="round" stroke-linejoin="round"/>
<path d="M7.99702 19.9597L5.39844 22.5582M7.99702 19.9597L11 22.9626M7.99702 19.9597V15.3831M7.99702 1C8.57535 1 9.21427 1.46882 9.21425 2.04713L9.21427 7.34272L7.99702 9.70993L6.74575 7.34272L6.74578 2.04713C6.74576 1.46882 7.41869 1 7.99702 1Z" stroke="white" stroke-width="1.2" stroke-miterlimit="10" stroke-linecap="round" stroke-linejoin="round"/>
<mask id="path-4-outside-1_197_1706" maskUnits="userSpaceOnUse" x="3" y="5.75879" width="10" height="19" fill="black">
<rect fill="white" x="3" y="5.75879" width="10" height="19"/>
<path d="M6.3746 7.75879L5.54803 8.28906C5.20163 8.56623 4.99999 8.98578 5 9.42941L5.00028 21.5402C5.0003 22.3468 5.65417 23.0006 6.46072 23.0006L9.38152 23.0005C10.1881 23.0005 10.8419 22.3466 10.8419 21.5401L10.8416 9.42928C10.8416 8.98567 10.6399 8.56608 10.2935 8.28898L9.30301 7.75879"/>
</mask>
<path d="M7.18455 9.02132C7.88183 8.57399 8.08445 7.64611 7.63713 6.94883C7.1898 6.25156 6.26192 6.04894 5.56464 6.49626L7.18455 9.02132ZM5.54803 8.28906L4.73808 7.02654C4.69412 7.05474 4.65166 7.08522 4.61088 7.11785L5.54803 8.28906ZM5 9.42941L3.5 9.42945L5 9.42941ZM5.00028 21.5402L6.50028 21.5402L5.00028 21.5402ZM6.46072 23.0006L6.46076 24.5006H6.46077L6.46072 23.0006ZM9.38152 23.0005L9.38148 21.5005H9.38147L9.38152 23.0005ZM10.8419 21.5401L12.3419 21.54V21.54L10.8419 21.5401ZM10.8416 9.42928L9.34159 9.42922V9.42932L10.8416 9.42928ZM10.2935 8.28898L11.2305 7.11764C11.1589 7.06036 11.0822 7.00978 11.0014 6.96651L10.2935 8.28898ZM10.0109 6.43632C9.2805 6.04538 8.37149 6.32054 7.98054 7.05092C7.5896 7.7813 7.86476 8.69031 8.59514 9.08126L10.0109 6.43632ZM5.56464 6.49626L4.73808 7.02654L6.35799 9.55159L7.18455 9.02132L5.56464 6.49626ZM4.61088 7.11785C3.90877 7.67964 3.49998 8.5301 3.5 9.42945L6.5 9.42938C6.5 9.44146 6.4945 9.45283 6.48519 9.46027L4.61088 7.11785ZM3.5 9.42945L3.50028 21.5403L6.50028 21.5402L6.5 9.42938L3.5 9.42945ZM3.50028 21.5403C3.50032 23.1752 4.82577 24.5006 6.46076 24.5006L6.46069 21.5006C6.46339 21.5006 6.46974 21.5014 6.47657 21.5043C6.48239 21.5068 6.48619 21.5097 6.48869 21.5122C6.49118 21.5147 6.49409 21.5185 6.49655 21.5243C6.49944 21.5311 6.50028 21.5375 6.50028 21.5402L3.50028 21.5403ZM6.46077 24.5006L9.38157 24.5005L9.38147 21.5005L6.46068 21.5006L6.46077 24.5006ZM9.38155 24.5005C11.0165 24.5005 12.3419 23.175 12.3419 21.54L9.3419 21.5401C9.3419 21.5374 9.34274 21.531 9.34562 21.5242C9.34809 21.5184 9.351 21.5146 9.35349 21.5121C9.35598 21.5096 9.35979 21.5067 9.36561 21.5042C9.37243 21.5013 9.37878 21.5005 9.38148 21.5005L9.38155 24.5005ZM12.3419 21.54L12.3416 9.42924L9.34159 9.42932L9.3419 21.5401L12.3419 21.54ZM12.3416 9.42933C12.3416 8.53002 11.9328 7.67941 11.2305 7.11764L9.35654 9.46032C9.34708 9.45275 9.34159 9.44133 9.34159 9.42922L12.3416 9.42933ZM11.0014 6.96651L10.0109 6.43632L8.59514 9.08126L9.58567 9.61145L11.0014 6.96651Z" fill="white" mask="url(#path-4-outside-1_197_1706)"/>
<path d="M16.0538 22.4135C15.8904 21.8593 16.0061 21.236 16.4156 20.7698C17.047 20.0511 16.98 18.9586 16.2682 18.3223" stroke="#6EB8B8" stroke-miterlimit="10" stroke-linecap="round" stroke-linejoin="round"/>
<path d="M18.8145 22.4135C18.9779 21.8593 18.8622 21.236 18.4527 20.7698C17.8213 20.0511 17.8884 18.9586 18.6001 18.3223" stroke="#6EB8B8" stroke-miterlimit="10" stroke-linecap="round" stroke-linejoin="round"/>
<path d="M17.4353 23.4706C19.1116 23.4706 20.4706 22.1116 20.4706 20.4353C20.4706 18.7589 19.1116 17.4 17.4353 17.4C15.7589 17.4 14.4 18.7589 14.4 20.4353C14.4 22.1116 15.7589 23.4706 17.4353 23.4706Z" stroke="white" stroke-width="1.2" stroke-miterlimit="10" stroke-linecap="round" stroke-linejoin="round"/>
</svg>
