<svg width="24" height="24" viewBox="0 0 24 24" fill="none" xmlns="http://www.w3.org/2000/svg">
<g clip-path="url(#clip0_197_1669)">
<mask id="mask0_197_1669" style="mask-type:luminance" maskUnits="userSpaceOnUse" x="-1" y="0" width="25" height="25">
<path d="M-0.00390625 0.00195503H23.9961V24.002H-0.00390625V0.00195503Z" fill="white"/>
</mask>
<g mask="url(#mask0_197_1669)">
<path d="M21.263 23.2988H2.72873C1.82039 23.2988 1.08398 22.5625 1.08398 21.6541V13.5652C1.08398 12.6568 1.82039 11.9205 2.72873 11.9205H21.263C22.1714 11.9205 22.9078 12.6568 22.9078 13.5652V21.6541C22.9078 22.5625 22.1714 23.2988 21.263 23.2988Z" stroke="white" stroke-width="1.40625" stroke-miterlimit="10" stroke-linecap="round" stroke-linejoin="round"/>
<path opacity="0.4" d="M13.0449 6.39766C12.4672 6.97422 11.5305 6.97422 10.9528 6.39766C10.3751 5.82109 10.3751 4.88627 10.9528 4.30966C11.5305 3.73309 12.4672 3.73309 13.0449 4.30966C13.6226 4.88627 13.6226 5.82109 13.0449 6.39766Z" stroke="white" stroke-width="1.3" stroke-miterlimit="10" stroke-linecap="round" stroke-linejoin="round"/>
<path opacity="0.5" d="M15.0645 2.77539C16.4911 4.19927 16.4911 6.50777 15.0645 7.93164" stroke="white" stroke-width="1.3" stroke-miterlimit="10" stroke-linecap="round" stroke-linejoin="round"/>
<path opacity="0.6" d="M16.6562 10.002C19.2285 7.43475 19.2285 3.27244 16.6562 0.705234" stroke="white" stroke-width="1.3" stroke-miterlimit="10" stroke-linecap="round" stroke-linejoin="round"/>
<path opacity="0.5" d="M8.9274 2.77534C7.50076 4.19922 7.50076 6.50777 8.9274 7.93164" stroke="white" stroke-width="1.3" stroke-miterlimit="10" stroke-linecap="round" stroke-linejoin="round"/>
<path opacity="0.6" d="M7.33737 10.002C4.76515 7.4347 4.76515 3.27239 7.33737 0.705189" stroke="white" stroke-width="1.3" stroke-miterlimit="10" stroke-linecap="round" stroke-linejoin="round"/>
<path d="M3.90234 14.7341V20.4854H6.49284" stroke="white" stroke-width="1.40625" stroke-miterlimit="10" stroke-linecap="round" stroke-linejoin="round"/>
<path d="M8.67188 14.7341V20.4854" stroke="white" stroke-width="1.40625" stroke-miterlimit="10" stroke-linecap="round" stroke-linejoin="round"/>
<path d="M11.1445 14.7341L12.8809 20.4854" stroke="white" stroke-width="1.40625" stroke-miterlimit="10" stroke-linecap="round" stroke-linejoin="round"/>
<path d="M14.6172 14.7341L12.8809 20.4854" stroke="white" stroke-width="1.40625" stroke-miterlimit="10" stroke-linecap="round" stroke-linejoin="round"/>
<path d="M19.9933 20.4854H16.916V14.7341H20.088" stroke="white" stroke-width="1.40625" stroke-miterlimit="10" stroke-linecap="round" stroke-linejoin="round"/>
<path d="M17.1543 17.2471H19.6161" stroke="white" stroke-width="1.40625" stroke-miterlimit="10" stroke-linecap="round" stroke-linejoin="round"/>
</g>
</g>
<defs>
<clipPath id="clip0_197_1669">
<rect width="24" height="24" fill="white"/>
</clipPath>
</defs>
</svg>
