<svg width="24" height="24" viewBox="0 0 24 24" fill="none" xmlns="http://www.w3.org/2000/svg">
<path fill-rule="evenodd" clip-rule="evenodd" d="M11.25 2C11.25 1.58579 11.5858 1.25 12 1.25C17.9371 1.25 22.75 6.06294 22.75 12C22.75 17.9371 17.9371 22.75 12 22.75C6.06294 22.75 1.25 17.9371 1.25 12C1.25 11.5858 1.58579 11.25 2 11.25C2.41421 11.25 2.75 11.5858 2.75 12C2.75 17.1086 6.89137 21.25 12 21.25C17.1086 21.25 21.25 17.1086 21.25 12C21.25 6.89137 17.1086 2.75 12 2.75C11.5858 2.75 11.25 2.41421 11.25 2Z" fill="white"/>
<path opacity="0.5" fill-rule="evenodd" clip-rule="evenodd" d="M9.10012 2.39808C9.24928 2.7845 9.05695 3.21868 8.67053 3.36785C8.52909 3.42245 8.38933 3.48042 8.25134 3.54168C7.87275 3.70975 7.4296 3.5391 7.26154 3.16051C7.09347 2.78193 7.26412 2.33878 7.64271 2.17071C7.80321 2.09946 7.9658 2.03201 8.13034 1.96849C8.51677 1.81932 8.95095 2.01166 9.10012 2.39808ZM5.64824 4.2408C5.93391 4.54075 5.92232 5.01549 5.62237 5.30115C5.5127 5.40559 5.40559 5.5127 5.30115 5.62237C5.01549 5.92232 4.54075 5.93391 4.2408 5.64824C3.94085 5.36258 3.92927 4.88785 4.21493 4.5879C4.3362 4.46056 4.46056 4.3362 4.5879 4.21493C4.88785 3.92927 5.36258 3.94085 5.64824 4.2408ZM3.16051 7.26154C3.5391 7.42961 3.70975 7.87276 3.54168 8.25134C3.48042 8.38933 3.42245 8.52909 3.36785 8.67053C3.21868 9.05695 2.7845 9.24928 2.39808 9.10012C2.01166 8.95095 1.81932 8.51677 1.96849 8.13035C2.03201 7.9658 2.09946 7.80321 2.17071 7.64271C2.33878 7.26412 2.78193 7.09347 3.16051 7.26154Z" fill="white"/>
<path opacity="0.5" d="M10.75 8.25C11.1642 8.25 11.5 8.58579 11.5 9V12.25H14.75C15.1642 12.25 15.5 12.5858 15.5 13C15.5 13.4142 15.1642 13.75 14.75 13.75H10.75C10.3358 13.75 10 13.4142 10 13V9C10 8.58579 10.3358 8.25 10.75 8.25Z" fill="white"/>
</svg>
